#!OML:ASF H:\BreakDance\Project 1\Capture day 1\Session 1\Male.ASF
:FULLY-SPECIFIED
:DEGREES
936
root -5.05134 16.1535 0.506811 -548.348 -93.4649 553.974
lowerback -4.08217 1.11795 1.20213
upperback 2.92416 1.48661 -1.86487
thorax 5.40374 0.810264 -2.48197
lowerneck -3.18437 -2.80048 -1.03033
upperneck -2.38109 -3.75687 -1.3576
head -0.211616 -1.88685 -0.268498
rclavicle -1.75427e-014 -3.97569e-016
rhumerus -15.9003 8.89185 -89.7396
rradius 40.3632
rwrist 9.96981
rhand -27.4126 323.848
rfingers 7.12502
rthumb -0.818595 -426.13
lclavicle -1.75427e-014 -3.97569e-016
lhumerus -17.108 -8.54863 85.9271
lradius 43.0175
lwrist -16.5477
lhand -24.7278 328.925
lfingers 7.12502
lthumb 1.77445 -1.10214
rfemur -23.9682 -3.77537 0.598321
rtibia 47.0706
rfoot -13.8166 -4.8797
rtoes -7.88105
lfemur -22.1536 7.10437 -9.97737
ltibia 40.0169
lfoot -26.2678 17.6427
ltoes -29.9433
937
root -5.06277 16.1607 0.544128 -548.083 -93.1 553.639
lowerback -4.22165 1.17562 1.18134
upperback 2.9055 1.56708 -1.9156
thorax 5.4693 0.850743 -2.51374
lowerneck -2.84708 -2.78554 -1.07096
upperneck -2.56086 -3.73874 -1.09144
head -0.313658 -1.87417 -0.175179
rclavicle 1.13307e-014 5.96354e-015
rhumerus -16.3523 8.80473 -89.9247
rradius 40.9308
rwrist 10.1021
rhand -27.7291 323.88
rfingers 7.12502
rthumb -1.12426 -426.097
lclavicle 1.13307e-014 5.96354e-015
lhumerus -17.4526 -8.49437 85.8911
lradius 43.3415
lwrist -16.6467
lhand -25.1426 328.627
lfingers 7.12502
lthumb 1.37385 -1.3977
rfemur -24.1079 -4.74164 0.972854
rtibia 47.1545
rfoot -13.8746 -5.42154
rtoes -8.09952
lfemur -21.7999 6.77065 -9.9887
ltibia 39.8571
lfoot -26.6838 18.0734
ltoes -29.576
938
root -5.07498 16.1649 0.578707 -547.636 -92.741 553.099
lowerback -4.36752 1.23395 1.17884
upperback 2.89017 1.64755 -1.97175
thorax 5.5429 0.892087 -2.56108
lowerneck -2.51116 -2.78736 -1.0526
upperneck -2.69143 -3.74384 -0.908272
head -0.403673 -1.87439 -0.116917
rclavicle 1.19768e-014 4.37326e-015
rhumerus -16.8249 8.78933 -90.116
rradius 41.5077
rwrist 10.264
rhand -28.0261 323.89
rfingers 7.12502
rthumb -1.41108 -426.085
lclavicle 1.19768e-014 4.37326e-015
lhumerus -17.7994 -8.52631 85.8296
lradius 43.7116
lwrist -16.6572
lhand -25.5424 328.329
lfingers 7.12502
lthumb 0.987731 -1.69323
rfemur -24.1872 -5.65104 1.35106
rtibia 47.2016
rfoot -14.0482 -5.88198
rtoes -8.62915
lfemur -21.4259 6.32314 -9.9861
ltibia 39.709
lfoot -27.1756 18.559
ltoes -29.0713
939
root -5.08791 16.166 0.6099 -547.529 -92.39 552.888
lowerback -4.51979 1.29583 1.16562
upperback 2.86625 1.73419 -2.04341
thorax 5.61187 0.936235 -2.61764
lowerneck -2.17762 -2.793 -0.993469
upperneck -2.75592 -3.75338 -0.774187
head -0.475503 -1.87768 -0.0804036
rclavicle -1.21756e-014 1.43125e-014
rhumerus -17.3242 8.84038 -90.3195
rradius 42.0849
rwrist 10.4318
rhand -28.2862 323.861
rfingers 7.12502
rthumb -1.66236 -426.112
lclavicle -1.21756e-014 1.43125e-014
lhumerus -18.1659 -8.65 85.7405
lradius 44.1267
lwrist -16.6147
lhand -25.9436 327.974
lfingers 7.12502
lthumb 0.60018 -2.04723
rfemur -24.2176 -6.47744 1.7049
rtibia 47.206
rfoot -14.3536 -6.18802
rtoes -9.333
lfemur -21.0379 5.73236 -10.0006
ltibia 39.5696
lfoot -27.7572 19.1197
ltoes -28.42
940
root -5.10144 16.1647 0.637518 -548.809 -92.0569 554.061
lowerback -4.68159 1.3587 1.10969
upperback 2.83045 1.82614 -2.13889
thorax 5.67372 0.981553 -2.67413
lowerneck -1.85211 -2.8006 -0.900255
upperneck -2.75383 -3.7647 -0.686236
head -0.527714 -1.88246 -0.0638401
rclavicle -7.95139e-015 -3.18055e-015
rhumerus -17.8368 8.93125 -90.5349
rradius 42.6538
rwrist 10.5885
rhand -28.4878 323.785
rfingers 7.12502
rthumb -1.85699 -426.187
lclavicle -7.95139e-015 -3.18055e-015
lhumerus -18.5591 -8.84269 85.6211
lradius 44.5866
lwrist -16.5716
lhand -26.3436 327.543
lfingers 7.12502
lthumb 0.213882 -2.4775
rfemur -24.2108 -7.1951 1.99281
rtibia 47.1576
rfoot -14.8063 -6.27045
rtoes -10.072
lfemur -20.6435 4.97722 -10.0743
ltibia 39.4395
lfoot -28.4393 19.7749
ltoes -27.6668
941
root -5.11558 16.1615 0.661855 -552.341 -91.754 557.49
lowerback -4.85378 1.41997 1.01077
upperback 2.7806 1.92003 -2.25708
thorax 5.72634 1.02627 -2.72955
lowerneck -1.5294 -2.81385 -0.797284
upperneck -2.69201 -3.78239 -0.629085
head -0.562323 -1.89067 -0.0586634
rclavicle -2.18663e-015 -4.77083e-015
rhumerus -18.3546 9.04942 -90.752
rradius 43.2153
rwrist 10.6849
rhand -28.6187 323.711
rfingers 7.12502
rthumb -1.98345 -426.259
lclavicle -2.18663e-015 -4.77083e-015
lhumerus -18.9788 -9.06477 85.4833
lradius 45.0837
lwrist -16.5547
lhand -26.7152 327.068
lfingers 7.12502
lthumb -0.145024 -2.95247
rfemur -24.1665 -7.78193 2.2035
rtibia 47.0431
rfoot -15.4195 -6.08209
rtoes -10.7872
lfemur -20.249 4.06026 -10.2177
ltibia 39.3261
lfoot -29.2379 20.505
ltoes -26.8364
942
root -5.13034 16.1562 0.683256 -557.9 -91.4871 562.943
lowerback -5.03127 1.47718 0.901091
upperback 2.71247 2.00962 -2.37954
thorax 5.76237 1.06819 -2.78354
lowerneck -1.20053 -2.83016 -0.725312
upperneck -2.56624 -3.80227 -0.572297
head -0.578004 -1.89986 -0.049108
rclavicle -1.22253e-014 -1.31198e-014
rhumerus -18.8842 9.18285 -90.9573
rradius 43.7664
rwrist 10.7271
rhand -28.7572 323.694
rfingers 7.12502
rthumb -2.11723 -426.275
lclavicle -1.22253e-014 -1.31198e-014
lhumerus -19.4178 -9.28159 85.3464
lradius 45.5892
lwrist -16.5641
lhand -27.031 326.623
lfingers 7.12502
lthumb -0.450001 -3.39822
rfemur -24.0734 -8.22603 2.37827
rtibia 46.8526
rfoot -16.1905 -5.63302
rtoes -11.4792
lfemur -19.8585 3.01814 -10.3914
ltibia 39.2406
lfoot -30.1503 21.2721
ltoes -25.9498
943
root -5.14576 16.148 0.702138 -565.401 -91.2624 570.328
lowerback -5.21594 1.52282 0.793613
upperback 2.63716 2.08336 -2.4896
thorax 5.79364 1.10198 -2.82708
lowerneck -0.863449 -2.84259 -0.704672
upperneck -2.39422 -3.81574 -0.50428
head -0.579801 -1.90565 -0.0282289
rclavicle -3.97569e-016 5.56597e-015
rhumerus -19.4133 9.33766 -91.1374
rradius 44.299
rwrist 10.7761
rhand -28.9662 323.739
rfingers 7.12502
rthumb -2.3191 -426.228
lclavicle -3.97569e-016 5.56597e-015
lhumerus -19.8478 -9.45712 85.2177
lradius 46.078
lwrist -16.5889
lhand -27.2698 326.288
lfingers 7.12502
lthumb -0.680639 -3.73353
rfemur -23.9166 -8.53286 2.54059
rtibia 46.5849
rfoot -17.0993 -4.97703
rtoes -12.0851
lfemur -19.4711 1.89755 -10.5725
ltibia 39.1953
lfoot -31.1608 22.039
ltoes -25.0307
944
root -5.16224 16.1364 0.718333 -574.316 -91.0567 579.1
lowerback -5.4078 1.56271 0.71238
upperback 2.56823 2.14687 -2.57493
thorax 5.83511 1.1314 -2.8602
lowerneck -0.525101 -2.8466 -0.743044
upperneck -2.18803 -3.81738 -0.411943
head -0.569828 -1.90549 0.00911442
rclavicle 6.95746e-015 -4.77083e-015
rhumerus -19.9292 9.51563 -91.2905
rradius 44.8085
rwrist 10.8499
rhand -29.203 323.837
rfingers 7.12502
rthumb -2.54775 -426.127
lclavicle 6.95746e-015 -4.77083e-015
lhumerus -20.2373 -9.5904 85.0968
lradius 46.532
lwrist -16.6055
lhand -27.4214 326.111
lfingers 7.12502
lthumb -0.82707 -3.91058
rfemur -23.6892 -8.6576 2.73472
rtibia 46.2484
rfoot -18.117 -4.2322
rtoes -12.6154
lfemur -19.0753 0.749336 -10.7204
ltibia 39.1979
lfoot -32.2509 22.7816
ltoes -24.1027
945
root -5.17987 16.1209 0.731916 -585.775 -90.8809 590.382
lowerback -5.60316 1.60277 0.657377
upperback 2.51001 2.20867 -2.65078
thorax 5.89042 1.16095 -2.898
lowerneck -0.224086 -2.83024 -0.858902
upperneck -1.91406 -3.79073 -0.254768
head -0.530442 -1.89155 0.0769737
rclavicle 1.30204e-014 -2.22639e-014
rhumerus -20.4323 9.69047 -91.4347
rradius 45.2921
rwrist 10.9396
rhand -29.442 323.906
rfingers 7.12502
rthumb -2.77859 -426.056
lclavicle 1.30204e-014 -2.22639e-014
lhumerus -20.5744 -9.71865 84.9717
lradius 46.9402
lwrist -16.599
lhand -27.4982 326.104
lfingers 7.12502
lthumb -0.901218 -3.91779
rfemur -23.386 -8.60676 2.94913
rtibia 45.8592
rfoot -19.1987 -3.51561
rtoes -13.1059
lfemur -18.6626 -0.388993 -10.8498
ltibia 39.248
lfoot -33.3953 23.4693
ltoes -23.1702
946
root -5.19867 16.1017 0.742524 -601.359 -90.7609 605.762
lowerback -5.8095 1.64641 0.613195
upperback 2.46763 2.27528 -2.73531
thorax 5.9699 1.19363 -2.94993
lowerneck 0.0547317 -2.81349 -0.957674
upperneck -1.62702 -3.76497 -0.102967
head -0.484075 -1.87862 0.13994
rclavicle -2.04748e-014 9.54166e-015
rhumerus -20.9137 9.85285 -91.593
rradius 45.7544
rwrist 11.0257
rhand -29.6794 323.867
rfingers 7.12502
rthumb -3.00785 -426.091
lclavicle -2.04748e-014 9.54166e-015
lhumerus -20.85 -9.87381 84.824
lradius 47.3009
lwrist -16.5554
lhand -27.533 326.218
lfingers 7.12502
lthumb -0.93483 -3.80415
rfemur -23.0237 -8.38267 3.16894
rtibia 45.4359
rfoot -20.2964 -2.96543
rtoes -13.5196
lfemur -18.233 -1.50196 -10.9817
ltibia 39.3368
lfoot -34.5938 24.0606
ltoes -22.187
947
root -5.21831 16.0802 0.749333 -620.161 -90.7084 624.349
lowerback -6.03413 1.69274 0.570207
upperback 2.44191 2.34631 -2.82529
thorax 6.07814 1.22882 -3.00701
lowerneck 0.303924 -2.79222 -1.02439
upperneck -1.34509 -3.73449 0.0363438
head -0.435445 -1.86381 0.193536
rclavicle 1.69961e-014 -2.62396e-014
rhumerus -21.3617 10.0129 -91.7722
rradius 46.2043
rwrist 11.0908
rhand -29.8949 323.703
rfingers 7.12502
rthumb -3.216 -426.252
lclavicle 1.69961e-014 -2.62396e-014
lhumerus -21.0487 -10.0673 84.6499
lradius 47.6044
lwrist -16.4694
lhand -27.5644 326.379
lfingers 7.12502
lthumb -0.965187 -3.64379
rfemur -22.632 -7.96113 3.41634
rtibia 44.9961
rfoot -21.3739 -2.7528
rtoes -13.7364
lfemur -17.8026 -2.57103 -11.1042
ltibia 39.4505
lfoot -35.818 24.5514
ltoes -21.1958
948
root -5.23788 16.0579 0.751899 -637.831 -90.7462 641.811
lowerback -6.26989 1.73426 0.498626
upperback 2.42367 2.41415 -2.92293
thorax 6.19977 1.2614 -3.05584
lowerneck 0.558927 -2.77203 -1.03536
upperneck -1.10705 -3.70692 0.145547
head -0.402786 -1.85069 0.229709
rclavicle -1.87852e-014 -5.56597e-015
rhumerus -21.7733 10.1693 -91.9717
rradius 46.6389
rwrist 11.1364
rhand -30.0832 323.433
rfingers 7.12502
rthumb -3.39782 -426.52
lclavicle -1.87852e-014 -5.56597e-015
lhumerus -21.1751 -10.2973 84.4502
lradius 47.8485
lwrist -16.3666
lhand -27.6119 326.564
lfingers 7.12502
lthumb -1.01104 -3.45844
rfemur -22.2299 -7.34079 3.67745
rtibia 44.5557
rfoot -22.4051 -3.04036
rtoes -13.5698
lfemur -17.3964 -3.54301 -11.2324
ltibia 39.5724
lfoot -36.9767 24.951
ltoes -20.3352
949
root -5.25631 16.0373 0.749946 -649.939 -90.8505 653.735
lowerback -6.50132 1.76918 0.384727
upperback 2.39709 2.47753 -3.03352
thorax 6.3087 1.28992 -3.09494
lowerneck 0.865444 -2.76633 -0.971288
upperneck -0.945106 -3.69969 0.224018
head -0.403505 -1.84781 0.246344
rclavicle 4.07509e-015 1.59028e-014
rhumerus -22.1511 10.3058 -92.1887
rradius 47.0432
rwrist 11.1563
rhand -30.2512 323.14
rfingers 7.12502
rthumb -3.56004 -426.81
lclavicle 4.07509e-015 1.59028e-014
lhumerus -21.2517 -10.564 84.2248
lradius 48.0509
lwrist -16.2885
lhand -27.6798 326.788
lfingers 7.12502
lthumb -1.07666 -3.23539
rfemur -21.8335 -6.50666 3.94651
rtibia 44.1288
rfoot -23.3721 -3.98656
rtoes -13.0479
lfemur -17.0381 -4.33472 -11.3622
ltibia 39.6851
lfoot -37.9644 25.2334
ltoes -19.6882
950
root -5.27321 16.0201 0.74302 -657.961 -90.9619 661.608
lowerback -6.7267 1.80464 0.24542
upperback 2.34893 2.54401 -3.1465
thorax 6.39051 1.31848 -3.12193
lowerneck 1.23949 -2.77755 -0.847184
upperneck -0.848077 -3.71487 0.293593
head -0.436206 -1.85629 0.252636
rclavicle -2.78299e-015 4.37326e-014
rhumerus -22.4977 10.4085 -92.4088
rradius 47.3992
rwrist 11.154
rhand -30.4136 322.92
rfingers 7.12502
rthumb -3.71692 -427.027
lclavicle -2.78299e-015 4.37326e-014
lhumerus -21.3024 -10.8637 83.9777
lradius 48.2368
lwrist -16.2941
lhand -27.7546 327.028
lfingers 7.12502
lthumb -1.14894 -2.99498
rfemur -21.4518 -5.41464 4.26021
rtibia 43.7268
rfoot -24.2556 -5.70134
rtoes -12.3839
lfemur -16.7435 -4.85949 -11.4441
ltibia 39.774
lfoot -38.681 25.3873
ltoes -19.2768
